<?xml version="1.0" encoding="utf-8"?>
<svg viewBox="10 10 45.902 35.951" fill="none" xmlns="http://www.w3.org/2000/svg">
  <defs>
    <linearGradient id="paint0_linear_25695_7838" x1="22.7769" y1="27.8437" x2="52.37" y2="36.2014" gradientUnits="userSpaceOnUse">
      <stop stop-color="white"/>
      <stop offset="1" stop-color="white"/>
    </linearGradient>
    <linearGradient id="paint1_linear_25695_7838" x1="47.372" y1="27.2792" x2="25.9445" y2="5.88729" gradientUnits="userSpaceOnUse">
      <stop stop-color="#8697FF"/>
      <stop offset="1" stop-color="#8697FF" stop-opacity="0"/>
    </linearGradient>
    <linearGradient id="paint2_linear_25695_7838" x1="36.3522" y1="39.2936" x2="15.8112" y2="27.5324" gradientUnits="userSpaceOnUse">
      <stop stop-color="#8697FF"/>
      <stop offset="1" stop-color="#8697FF" stop-opacity="0"/>
    </linearGradient>
    <linearGradient id="paint3_linear_25695_7838" x1="24.5426" y1="27.6223" x2="38.4688" y2="45.2445" gradientUnits="userSpaceOnUse">
      <stop stop-color="white"/>
      <stop offset="0.9839" stop-color="#D1D8FF"/>
    </linearGradient>
  </defs>
  <path d="M52.7138 31.1812C54.394 27.4123 46.0878 16.8828 38.1525 12.496C33.1507 9.09756 27.9388 9.56444 26.8832 11.0566C24.5666 14.3313 34.554 17.1061 41.2333 20.3441C39.7975 20.9702 38.4445 22.0939 37.6488 23.531C35.1587 20.8013 29.6933 18.4506 23.2801 20.3441C18.9584 21.6201 15.3668 24.6283 13.9786 29.1719C13.6413 29.0214 13.2679 28.9377 12.875 28.9377C11.3725 28.9377 10.1545 30.1607 10.1545 31.6693C10.1545 33.178 11.3725 34.4009 12.875 34.4009C13.1535 34.4009 14.0242 34.2134 14.0242 34.2134L27.9388 34.3146C22.374 43.1788 17.9763 44.4746 17.9763 46.0103C17.9763 47.5459 22.1842 47.1298 23.7641 46.5574C31.3275 43.8171 39.4509 35.2769 40.8449 32.8185C46.6987 33.5518 51.6183 33.6386 52.7138 31.1812Z" fill="url(#paint0_linear_25695_7838)"/>
  <path fill-rule="evenodd" clip-rule="evenodd" d="M41.2327 20.3446C41.2331 20.3448 41.2335 20.3449 41.2339 20.3451C41.5435 20.2227 41.4934 19.7635 41.4084 19.403C41.213 18.5742 37.8417 15.2315 34.6758 13.7342C30.3622 11.6942 27.1857 11.7992 26.7161 12.7394C27.5947 14.5478 31.6685 16.2457 35.9233 18.019C37.7385 18.7755 39.5866 19.5458 41.2336 20.3442C41.2333 20.3443 41.233 20.3445 41.2327 20.3446Z" fill="url(#paint1_linear_25695_7838)"/>
  <path fill-rule="evenodd" clip-rule="evenodd" d="M35.7584 38.5454C34.886 38.2106 33.9005 37.9035 32.7801 37.6248C33.9748 35.4784 34.2255 32.3008 33.0972 30.2918C31.5138 27.4724 29.5262 25.9717 24.9075 25.9717C22.3672 25.9717 15.5275 26.8309 15.4061 32.5639C15.3934 33.1654 15.4058 33.7167 15.4492 34.2237L27.9388 34.3146C26.255 36.9967 24.678 38.9859 23.2974 40.4985C24.9551 40.925 26.323 41.2831 27.5788 41.6118C28.7705 41.9237 29.8612 42.2092 31.0027 42.5017C32.7248 41.2419 34.3438 39.8682 35.7584 38.5454Z" fill="url(#paint2_linear_25695_7838)"/>
  <path d="M13.812 33.6348C14.3222 37.9899 16.7872 39.6967 21.8242 40.2018C26.8611 40.7069 29.7504 40.368 33.5969 40.7194C36.8096 41.0129 39.6781 42.6568 40.7422 42.0887C41.7 41.5775 41.1642 39.7304 39.8827 38.5454C38.2215 37.0093 35.9225 35.9413 31.8772 35.5622C32.6833 33.3458 32.4574 30.2382 31.2054 28.5474C29.395 26.1027 26.0534 24.9974 21.8242 25.4803C17.4056 25.9849 13.1717 28.1692 13.812 33.6348Z" fill="url(#paint3_linear_25695_7838)"/>
</svg>
