<?xml version="1.0" standalone="no"?>
<!DOCTYPE svg PUBLIC "-//W3C//DTD SVG 20010904//EN"
 "http://www.w3.org/TR/2001/REC-SVG-20010904/DTD/svg10.dtd">
<svg version="1.0" xmlns="http://www.w3.org/2000/svg"
 width="2500.000000pt" height="2500.000000pt" viewBox="0 0 2500.000000 2500.000000"
 preserveAspectRatio="xMidYMid meet">
<metadata>
Created by potrace 1.14, written by Peter Selinger 2001-2017
</metadata>
<g transform="translate(0.000000,2500.000000) scale(0.100000,-0.100000)"
fill="#000000" stroke="none">
<path d="M6277 18755 c-3423 -3423 -6221 -6228 -6218 -6232 3 -4 35 -33 71
-63 36 -30 67 -57 70 -60 9 -9 204 -175 265 -225 33 -28 66 -56 73 -63 8 -7
30 -25 50 -40 21 -15 39 -29 42 -33 38 -43 832 -644 979 -741 14 -9 62 -42
106 -73 71 -51 581 -392 631 -422 10 -6 106 -67 213 -134 107 -66 208 -129
225 -139 17 -9 77 -45 134 -79 56 -33 107 -61 112 -61 6 0 10 -4 10 -10 0 -5
4 -10 10 -10 5 0 63 -32 129 -70 66 -39 123 -70 126 -70 3 0 22 -10 43 -23 20
-13 78 -45 127 -72 50 -27 122 -66 160 -87 92 -50 738 -373 840 -420 44 -20
125 -58 180 -83 55 -26 210 -94 345 -152 135 -57 259 -111 275 -118 164 -73
674 -266 975 -370 124 -42 234 -81 245 -86 23 -9 407 -132 560 -178 102 -31
389 -112 480 -136 28 -8 84 -23 125 -34 182 -48 267 -70 290 -74 14 -3 61 -14
105 -25 44 -12 91 -23 105 -26 14 -3 86 -19 160 -36 119 -28 605 -130 685
-144 17 -2 71 -12 120 -20 50 -9 101 -18 115 -21 14 -3 122 -20 240 -39 265
-43 308 -49 393 -60 91 -12 134 -18 157 -21 14 -2 48 -7 75 -10 28 -3 82 -10
120 -15 39 -5 97 -12 130 -15 33 -4 74 -8 90 -10 17 -2 55 -7 85 -10 30 -3 75
-7 100 -10 25 -2 74 -7 110 -10 36 -3 81 -8 100 -10 19 -2 71 -7 115 -10 44
-3 105 -8 135 -10 66 -6 164 -12 325 -20 66 -4 145 -8 175 -10 405 -24 1330
-25 1800 0 30 1 116 6 190 9 74 4 153 9 175 11 22 1 83 6 135 9 52 4 115 9
140 11 25 3 70 7 100 9 174 15 207 18 230 21 14 2 54 6 90 10 36 3 81 8 100
10 19 2 58 7 85 10 121 12 151 15 171 19 12 2 45 7 75 11 83 9 203 25 225 29
10 2 62 9 114 16 52 7 102 13 110 15 8 1 35 6 60 10 25 4 54 9 65 11 11 3 39
7 61 10 23 2 53 7 65 9 55 11 137 25 174 30 45 6 91 15 420 80 192 38 449 93
530 112 11 3 36 8 55 13 64 14 225 52 240 55 8 3 112 29 230 60 118 30 222 57
230 59 73 18 476 135 630 182 272 84 976 324 1065 363 11 5 133 53 270 106
230 90 640 262 795 333 36 17 97 44 135 62 39 17 106 48 149 68 96 45 781 386
816 406 14 9 81 45 150 82 774 415 1569 923 2319 1482 86 64 158 118 161 122
3 3 32 25 65 49 113 84 554 438 585 471 3 3 32 27 65 54 33 28 67 57 76 65 9
9 34 30 55 48 22 17 48 40 59 50 11 10 36 32 56 49 l37 31 -6224 6226 -6224
6225 -6223 -6223z m6558 -3979 c263 -8 312 -10 490 -20 205 -12 260 -16 320
-21 33 -3 96 -7 140 -10 44 -3 98 -7 120 -10 22 -2 72 -7 110 -10 39 -3 88 -8
110 -10 22 -2 67 -7 100 -10 145 -15 241 -25 262 -29 10 -2 48 -7 84 -10 36
-4 76 -9 90 -11 13 -2 47 -7 74 -10 28 -3 64 -7 80 -10 17 -3 46 -7 65 -9 90
-13 406 -61 495 -76 33 -6 76 -13 95 -16 60 -9 300 -54 405 -75 107 -22 111
-23 165 -33 19 -3 46 -8 60 -11 14 -3 34 -7 45 -9 62 -13 265 -58 295 -66 19
-5 58 -14 85 -20 100 -21 361 -85 430 -104 28 -8 129 -35 225 -61 96 -25 186
-50 200 -54 14 -5 68 -21 120 -36 281 -80 895 -278 967 -311 17 -8 35 -14 39
-14 8 0 351 -123 389 -140 11 -5 74 -29 140 -55 264 -102 664 -268 818 -339
42 -20 79 -36 81 -36 4 0 225 -101 396 -182 200 -95 680 -338 838 -424 23 -13
86 -47 140 -75 53 -29 108 -60 122 -69 14 -8 50 -29 80 -44 30 -16 62 -34 70
-41 8 -7 32 -20 53 -30 20 -9 37 -21 37 -25 0 -12 -776 -480 -795 -480 -2 0
-30 -15 -62 -34 -54 -31 -105 -59 -263 -144 -36 -19 -200 -103 -365 -186 -278
-140 -384 -192 -555 -269 -36 -16 -98 -45 -138 -63 -41 -19 -76 -34 -78 -34
-3 0 -29 -11 -57 -23 -29 -13 -108 -48 -177 -76 -69 -29 -138 -59 -155 -66
-16 -7 -59 -25 -95 -40 -36 -14 -74 -30 -85 -35 -11 -5 -87 -34 -170 -65 -82
-31 -161 -61 -175 -67 -58 -25 -745 -263 -785 -272 -5 -1 -37 -11 -70 -21 -33
-10 -64 -19 -70 -21 -5 -1 -48 -14 -95 -29 -71 -22 -398 -117 -450 -131 -24
-6 -561 -142 -610 -155 -25 -6 -56 -13 -69 -15 -12 -3 -53 -12 -90 -20 -36 -9
-77 -18 -91 -21 -14 -2 -76 -15 -138 -29 -63 -13 -127 -26 -143 -29 -16 -3
-60 -12 -97 -19 -37 -8 -83 -17 -102 -20 -19 -3 -46 -8 -60 -11 -70 -16 -120
-17 -136 -4 -9 7 -24 18 -34 24 -11 5 -90 53 -177 105 -87 52 -174 103 -193
114 -19 10 -47 27 -62 37 -14 11 -29 19 -32 19 -3 0 -43 22 -88 49 -84 49
-204 116 -333 186 -38 21 -92 50 -120 65 -154 86 -732 379 -940 477 -238 112
-391 183 -500 230 -44 20 -102 45 -130 58 -27 12 -95 41 -150 64 -55 23 -118
50 -140 60 -22 10 -121 51 -220 91 -99 40 -193 78 -210 85 -16 7 -97 38 -180
69 -82 32 -159 61 -170 66 -77 32 -450 165 -730 258 -391 131 -898 285 -1230
373 -116 30 -458 118 -487 125 -36 8 -55 13 -138 33 -47 12 -94 23 -105 25
-11 2 -51 12 -90 21 -73 17 -332 73 -375 81 -14 3 -52 11 -85 19 -33 7 -76 16
-95 19 -35 6 -46 8 -135 26 -96 20 -260 51 -295 56 -19 3 -73 12 -120 20 -47
9 -94 17 -105 19 -11 1 -63 10 -115 18 -52 9 -113 18 -135 21 -22 4 -65 11
-95 16 -30 5 -75 12 -100 15 -25 3 -56 8 -70 10 -28 5 -54 8 -180 25 -47 6
-96 13 -110 15 -14 2 -50 7 -80 10 -30 4 -66 9 -80 10 -14 2 -54 6 -90 10 -36
3 -77 8 -92 11 -15 3 -47 7 -72 9 -24 2 -64 6 -88 9 -24 3 -74 8 -113 11 -38
3 -86 8 -105 10 -32 4 -85 9 -195 20 -22 2 -85 7 -140 10 -55 4 -116 8 -135
10 -19 2 -75 6 -125 10 -49 3 -117 8 -150 10 -33 2 -118 7 -190 10 -71 4 -166
8 -210 10 -165 8 -538 17 -758 18 -125 1 -227 4 -227 8 0 3 15 11 33 16 30 11
285 117 352 147 110 50 667 265 930 358 388 138 1023 345 1145 373 8 2 53 15
100 30 47 14 94 27 105 30 11 2 36 9 55 15 93 30 681 180 915 235 33 8 98 23
145 34 47 10 110 24 140 30 30 6 64 13 75 15 221 46 417 86 445 90 19 3 67 12
105 20 39 8 86 17 105 20 19 3 46 8 60 11 14 3 48 8 75 11 28 4 53 8 57 10 4
3 26 7 50 10 24 2 52 7 64 9 12 3 39 7 60 10 21 3 64 10 94 15 50 9 233 36
305 45 17 2 80 11 140 19 61 8 135 18 165 21 30 3 66 8 80 10 14 2 54 7 90 11
36 3 72 7 80 9 8 2 53 6 100 10 47 4 92 9 100 10 9 2 47 6 85 9 39 4 90 9 115
11 25 3 74 7 110 10 36 2 88 7 115 9 28 3 93 8 145 11 52 3 113 8 135 9 37 4
199 13 375 21 41 2 176 7 300 10 124 4 226 7 227 8 4 5 666 -1 888 -7z"/>
<path d="M18655 6219 c-55 -39 -107 -73 -115 -76 -8 -4 -19 -11 -25 -15 -5 -5
-39 -27 -75 -50 -36 -23 -94 -60 -130 -83 -36 -23 -96 -61 -135 -84 -38 -23
-126 -76 -195 -117 -122 -74 -384 -227 -505 -294 -33 -18 -73 -41 -90 -50
-207 -116 -377 -204 -710 -369 -302 -150 -417 -206 -545 -264 -290 -132 -534
-237 -820 -351 -91 -37 -174 -71 -185 -76 -11 -4 -99 -38 -195 -74 -510 -189
-982 -346 -1420 -470 -107 -31 -217 -62 -245 -70 -218 -64 -940 -239 -1160
-280 -11 -2 -90 -18 -175 -34 -85 -17 -168 -33 -185 -37 -154 -28 -256 -46
-289 -51 -21 -2 -42 -6 -45 -8 -3 -2 -31 -7 -61 -11 -30 -3 -62 -8 -70 -10
-18 -5 -263 -43 -322 -50 -24 -3 -54 -7 -68 -10 -14 -2 -50 -7 -80 -10 -30 -4
-66 -8 -80 -10 -47 -7 -105 -15 -155 -20 -27 -3 -61 -8 -75 -10 -14 -2 -50 -6
-80 -10 -30 -3 -71 -8 -90 -10 -46 -6 -119 -13 -200 -20 -36 -3 -81 -8 -100
-10 -19 -2 -66 -7 -105 -10 -71 -5 -150 -11 -240 -19 -27 -3 -104 -8 -170 -11
-66 -4 -121 -8 -123 -10 -1 -1 697 -702 1553 -1558 l1555 -1556 3130 3130
c1722 1721 3130 3132 3130 3134 0 7 7 11 -105 -66z"/>
</g>
</svg>
