<svg width="163" height="37" viewBox="0 0 163 37" fill="none" xmlns="http://www.w3.org/2000/svg">
  <path fill-rule="evenodd" clip-rule="evenodd" d="M67.0045 10.415H63.7227V28.5039H67.0045V10.415Z" fill="white" />
  <path fill-rule="evenodd" clip-rule="evenodd"
    d="M96.0959 17.9911C99.4791 18.7871 101.432 19.9124 101.9 22.1356C101.98 22.5053 102.017 22.8829 102.01 23.2609C102.01 26.6368 99.6442 28.7777 95.7933 28.7777C92.8551 28.7532 90.0201 27.6938 87.7891 25.786L89.742 23.5079C91.5024 25.0175 93.5928 25.9781 95.8758 25.9781C98.1588 25.9781 98.7915 24.9626 98.7915 23.5628C98.7915 22.163 98.0488 21.5592 94.6381 20.7907C90.7322 19.8849 88.4767 18.5949 88.4767 15.2464C88.4767 11.8979 90.8147 10.1413 94.4455 10.1413C96.975 10.1131 99.442 10.9241 101.46 12.4469L99.7267 14.8347C98.0763 13.6271 96.2059 12.8037 94.528 12.8037C92.8502 12.8037 91.6949 13.7643 91.6949 14.972C91.6949 16.1796 92.6026 17.1677 96.0959 17.9911Z"
    fill="white" />
  <path fill-rule="evenodd" clip-rule="evenodd"
    d="M126.82 10.415L122.422 23.748L117.914 10.415H115.209L110.701 23.748L106.302 10.415H102.832L109.225 28.5039H112.012L116.52 15.6108L121.028 28.5039H123.788L130.181 10.415H126.82Z"
    fill="white" />
  <path
    d="M155.754 13.3016H151.18V19.6519H155.754C158.205 19.6519 159.721 18.7172 159.721 16.3805C159.721 14.0438 158.178 13.3016 155.754 13.3016ZM155.643 22.4835H151.18V28.5039H147.957V10.415H156.029C160.299 10.415 162.999 12.5868 162.999 16.2431C162.999 20.3117 159.996 22.4835 155.643 22.4835Z"
    fill="white" />
  <path
    d="M78.9963 13.3016H74.3385V19.6244H79.0237C81.3252 19.6244 82.8048 18.2774 82.8048 16.4355C82.8048 14.5936 81.38 13.3016 78.9963 13.3016ZM82.339 28.5039L78.3388 22.4285H74.3385V28.5039H71.1055V10.415H79.2703C83.4623 10.415 86.0652 12.9167 86.0652 16.4355C86.0652 19.4045 84.2569 21.1914 81.6814 21.9062L86.1474 28.5039H82.339Z"
    fill="white" />
  <path
    d="M51.6901 14.1813L54.3039 21.0539C52.3177 21.0506 50.3549 21.4822 48.5536 22.3185L51.6901 14.1813ZM42.3906 28.5039H45.7748C45.7748 28.5039 48.2234 23.3082 55.4044 23.8855L57.3303 28.5039H60.7145L53.2308 10.415H50.0668L42.3906 28.5039Z"
    fill="white" />
  <path
    d="M139.889 22.3185C138.09 21.4839 136.13 21.0523 134.147 21.0539L136.757 14.1813L139.889 22.3185ZM138.378 10.415H135.219L127.719 28.5039H131.098L133.048 23.8855C140.191 23.3082 142.636 28.5039 142.636 28.5039H146.043L138.378 10.415Z"
    fill="white" />
  <path fill-rule="evenodd" clip-rule="evenodd"
    d="M27.8287 27.6816L18.4334 37.0002L13.7773 32.3821C18.7984 32.0781 23.6476 30.456 27.8287 27.6816Z" fill="white" />
  <path
    d="M36.617 18.214L35.4632 17.0567L18.4596 0L1.45589 17.0567L0 18.5172L0.521922 18.9856C1.12625 19.4816 1.73058 19.95 2.36238 20.3909C6.97727 23.6322 12.4566 25.4076 18.0898 25.4862C23.723 25.5647 29.2496 23.9431 33.9524 20.8318C34.6117 20.3909 35.2709 19.8949 35.9027 19.3989C36.5345 18.9029 36.5895 18.8203 36.9191 18.5172L36.617 18.214ZM22.9371 22.4851C17.8643 19.3612 12.0232 17.72 6.07078 17.7456C13.8447 14.3563 23.3491 13.8879 32.0845 18.9305C29.2936 20.6982 26.1868 21.9056 22.9371 22.4851Z"
    fill="white" />
</svg>
