<svg width="32" height="32" viewBox="0 0 32 32" fill="none" xmlns="http://www.w3.org/2000/svg">
  <path d="M23.3045 23.1855L16.0092 30.4615L12.3828 26.8447C16.2925 26.6187 20.0605 25.3613 23.3045 23.1855Z"
    fill="white" />
  <path
    d="M30.216 15.7114L29.3236 14.8214L16.008 1.54102L2.69233 14.8214L1.54492 15.9657C1.68658 16.0788 1.81407 16.2059 1.95572 16.3189C2.42319 16.7145 2.90482 17.0819 3.40061 17.4209C8.6702 21.1225 15.2005 22.2386 21.2351 20.7693C23.6999 20.1759 26.0372 19.1445 28.1478 17.7459C28.672 17.3927 29.1819 17.0253 29.6777 16.6298C29.9469 16.4178 30.216 16.1918 30.4852 15.9516L30.216 15.7114ZM19.521 19.0457C15.5547 16.6015 10.9792 15.33 6.30455 15.3441C12.3816 12.7163 19.8327 12.349 26.6746 16.2766C24.4931 17.6611 22.0567 18.6077 19.521 19.0457Z"
    fill="white" />
</svg>
