<svg width="48" height="48" viewBox="0 0 48 48" fill="none" xmlns="http://www.w3.org/2000/svg">
<circle cx="23.75" cy="23.75" r="23.25" fill="#060607" stroke="#1A1E25"/>
<path d="M36.3516 27.5762C37.1792 24.7187 36.9904 21.6627 35.8174 18.9288C34.6443 16.1949 32.5596 13.9523 29.9185 12.5832C27.2773 11.214 24.2432 10.803 21.333 11.4202C18.4228 12.0373 15.8166 13.6444 13.9585 15.9677C12.1004 18.291 11.1053 21.1867 11.1429 24.1614C11.1804 27.1361 12.2482 30.0057 14.1644 32.2814C16.0805 34.557 18.7264 36.0979 21.6513 36.6414C24.5761 37.1849 27.599 36.6974 30.2047 35.2621L29.4056 33.8115C27.1355 35.062 24.502 35.4867 21.9538 35.0131C19.4057 34.5396 17.1005 33.1972 15.4312 31.2147C13.7618 29.2321 12.8315 26.732 12.7988 24.1405C12.7661 21.5489 13.633 19.0262 15.2518 17.0021C16.8706 14.978 19.1411 13.5779 21.6765 13.0402C24.2119 12.5026 26.8553 12.8606 29.1563 14.0535C31.4573 15.2463 33.2735 17.2 34.2954 19.5818C35.3174 21.9636 35.4819 24.626 34.7609 27.1155L36.3516 27.5762Z" fill="white"/>
</svg>
