<svg width="40" height="40" viewBox="0 0 40 40" fill="none" xmlns="http://www.w3.org/2000/svg">
<path d="M34.414 4.45703L21.9219 13.7351L24.232 8.26118L34.414 4.45703Z" fill="#E2761B" stroke="#E2761B" stroke-linecap="round" stroke-linejoin="round"/>
<path d="M5.57422 4.45703L17.9659 13.823L15.7688 8.26117L5.57422 4.45703Z" fill="#E4761B" stroke="#E4761B" stroke-linecap="round" stroke-linejoin="round"/>
<path d="M29.9208 25.9648L26.5938 31.0621L33.7124 33.0207L35.7589 26.0778L29.9208 25.9648Z" fill="#E4761B" stroke="#E4761B" stroke-linecap="round" stroke-linejoin="round"/>
<path d="M4.25781 26.0778L6.29171 33.0207L13.4104 31.0621L10.0833 25.9648L4.25781 26.0778Z" fill="#E4761B" stroke="#E4761B" stroke-linecap="round" stroke-linejoin="round"/>
<path d="M13.0071 17.3515L11.0234 20.3522L18.0919 20.666L17.8408 13.0703L13.0071 17.3515Z" fill="#E4761B" stroke="#E4761B" stroke-linecap="round" stroke-linejoin="round"/>
<path d="M26.9815 17.3496L22.0851 12.9805L21.9219 20.6641L28.9777 20.3502L26.9815 17.3496Z" fill="#E4761B" stroke="#E4761B" stroke-linecap="round" stroke-linejoin="round"/>
<path d="M13.4102 31.0591L17.6537 28.9875L13.9877 26.125L13.4102 31.0591Z" fill="#E4761B" stroke="#E4761B" stroke-linecap="round" stroke-linejoin="round"/>
<path d="M22.3359 28.9875L26.5921 31.0591L26.002 26.125L22.3359 28.9875Z" fill="#E4761B" stroke="#E4761B" stroke-linecap="round" stroke-linejoin="round"/>
<path d="M26.5921 31.0598L22.3359 28.9883L22.6749 31.7629L22.6373 32.9305L26.5921 31.0598Z" fill="#D7C1B3" stroke="#D7C1B3" stroke-linecap="round" stroke-linejoin="round"/>
<path d="M13.4102 31.0598L17.365 32.9305L17.3398 31.7629L17.6537 28.9883L13.4102 31.0598Z" fill="#D7C1B3" stroke="#D7C1B3" stroke-linecap="round" stroke-linejoin="round"/>
<path d="M17.4272 24.2939L13.8867 23.2519L16.3851 22.1094L17.4272 24.2939Z" fill="#233447" stroke="#233447" stroke-linecap="round" stroke-linejoin="round"/>
<path d="M22.5625 24.2939L23.6046 22.1094L26.1155 23.2519L22.5625 24.2939Z" fill="#233447" stroke="#233447" stroke-linecap="round" stroke-linejoin="round"/>
<path d="M13.4091 31.0621L14.0117 25.9648L10.082 26.0778L13.4091 31.0621Z" fill="#CD6116" stroke="#CD6116" stroke-linecap="round" stroke-linejoin="round"/>
<path d="M25.9883 25.9648L26.5909 31.0621L29.918 26.0778L25.9883 25.9648Z" fill="#CD6116" stroke="#CD6116" stroke-linecap="round" stroke-linejoin="round"/>
<path d="M28.9777 20.3516L21.9219 20.6654L22.5747 24.2938L23.6168 22.1093L26.1278 23.2518L28.9777 20.3516Z" fill="#CD6116" stroke="#CD6116" stroke-linecap="round" stroke-linejoin="round"/>
<path d="M13.886 23.2518L16.3969 22.1093L17.4264 24.2938L18.0919 20.6654L11.0234 20.3516L13.886 23.2518Z" fill="#CD6116" stroke="#CD6116" stroke-linecap="round" stroke-linejoin="round"/>
<path d="M11.0234 20.3516L13.9864 26.1268L13.886 23.2518L11.0234 20.3516Z" fill="#E4751F" stroke="#E4751F" stroke-linecap="round" stroke-linejoin="round"/>
<path d="M26.1255 23.2518L26 26.1268L28.9755 20.3516L26.1255 23.2518Z" fill="#E4751F" stroke="#E4751F" stroke-linecap="round" stroke-linejoin="round"/>
<path d="M18.0912 20.6641L17.4258 24.2924L18.2544 28.5737L18.4427 22.9365L18.0912 20.6641Z" fill="#E4751F" stroke="#E4751F" stroke-linecap="round" stroke-linejoin="round"/>
<path d="M21.921 20.6641L21.582 22.9239L21.7327 28.5737L22.5739 24.2924L21.921 20.6641Z" fill="#E4751F" stroke="#E4751F" stroke-linecap="round" stroke-linejoin="round"/>
<path d="M22.5756 24.2921L21.7344 28.5733L22.337 28.9876L26.0031 26.1251L26.1286 23.25L22.5756 24.2921Z" fill="#F6851B" stroke="#F6851B" stroke-linecap="round" stroke-linejoin="round"/>
<path d="M13.8867 23.25L13.9872 26.1251L17.6532 28.9876L18.2558 28.5733L17.4272 24.2921L13.8867 23.25Z" fill="#F6851B" stroke="#F6851B" stroke-linecap="round" stroke-linejoin="round"/>
<path d="M22.638 32.9332L22.6757 31.7656L22.3618 31.4894H17.6286L17.3398 31.7656L17.365 32.9332L13.4102 31.0625L14.7912 32.1924L17.5909 34.1385H22.3995L25.2118 32.1924L26.5928 31.0625L22.638 32.9332Z" fill="#C0AD9E" stroke="#C0AD9E" stroke-linecap="round" stroke-linejoin="round"/>
<path d="M22.3367 28.9885L21.7341 28.5742H18.2564L17.6537 28.9885L17.3398 31.7632L17.6286 31.487H22.3618L22.6757 31.7632L22.3367 28.9885Z" fill="#161616" stroke="#161616" stroke-linecap="round" stroke-linejoin="round"/>
<path d="M34.9411 14.3378L36.0083 9.21535L34.4138 4.45703L22.3359 13.4212L26.9813 17.3509L33.5475 19.2718L35.0039 17.5769L34.3761 17.125L35.3805 16.2084L34.6021 15.6058L35.6065 14.84L34.9411 14.3378Z" fill="#763D16" stroke="#763D16" stroke-linecap="round" stroke-linejoin="round"/>
<path d="M3.99219 9.21535L5.05936 14.3378L4.38139 14.84L5.38578 15.6058L4.61993 16.2084L5.62433 17.125L4.99658 17.5769L6.4404 19.2718L13.0066 17.3509L17.6519 13.4212L5.57411 4.45703L3.99219 9.21535Z" fill="#763D16" stroke="#763D16" stroke-linecap="round" stroke-linejoin="round"/>
<path d="M33.5455 19.2725L26.9793 17.3516L28.9755 20.3522L26 26.1275L29.9171 26.0772H35.7552L33.5455 19.2725Z" fill="#F6851B" stroke="#F6851B" stroke-linecap="round" stroke-linejoin="round"/>
<path d="M13.0086 17.3516L6.44237 19.2725L4.25781 26.0772H10.0833L13.9879 26.1275L11.0249 20.3522L13.0086 17.3516Z" fill="#F6851B" stroke="#F6851B" stroke-linecap="round" stroke-linejoin="round"/>
<path d="M21.9215 20.666L22.3358 13.4218L24.2441 8.26172H15.7695L17.6528 13.4218L18.0922 20.666L18.2429 22.951L18.2554 28.5756H21.7331L21.7582 22.951L21.9215 20.666Z" fill="#F6851B" stroke="#F6851B" stroke-linecap="round" stroke-linejoin="round"/>
</svg>
